<?xml version="1.0" encoding="iso-8859-1"?>
<!-- Generator: Adobe Illustrator 19.0.0, SVG Export Plug-In . SVG Version: 6.00 Build 0)  -->
<svg version="1.1" id="Layer_1" xmlns="http://www.w3.org/2000/svg" xmlns:xlink="http://www.w3.org/1999/xlink" x="0px" y="0px"
     viewBox="0 0 502 502" style="enable-background:new 0 0 502 502;" xml:space="preserve">
<g>
	<g>
		<g>
			<path d="M125.828,272.164h-23.893c-5.523,0-10,4.477-10,10s4.477,10,10,10h23.893c5.523,0,10-4.477,10-10
				S131.35,272.164,125.828,272.164z" fill="#fff"/>
            <path d="M443.839,183.982c27.22-43.057,41.021-75.031,41.021-95.035C484.859,39.901,444.958,0,395.912,0
				c-43.999,0-80.631,32.114-87.707,74.132c-22.855-7.833-46.762-11.804-71.228-11.804c-58.721,0-113.926,22.867-155.448,64.388
				c-41.521,41.522-64.389,96.728-64.389,155.448c0,58.721,22.867,113.926,64.389,155.448C123.052,479.133,178.258,502,236.979,502
				c58.72,0,113.926-22.867,155.447-64.389c41.522-41.521,64.389-96.727,64.389-155.448c0-31.054-6.337-60.997-18.817-89.088
				C439.93,190.113,441.882,187.078,443.839,183.982z M395.912,20c38.018,0,68.947,30.93,68.947,68.947
				c0,29.434-44.246,96.129-68.948,129.963c-24.703-33.828-68.946-100.511-68.946-129.963C326.964,50.93,357.895,20,395.912,20z
				 M307.354,95.075c2.403,20.153,16.039,50.005,40.633,88.908c19.75,31.241,39.17,56.661,39.987,57.728
				c1.892,2.471,4.827,3.92,7.939,3.92s6.047-1.449,7.939-3.92c0.54-0.704,9.196-12.035,20.7-28.645
				c6.998,18.942,11.018,38.73,12.009,59.098H325.838c-0.924-53.484-9.246-103.548-23.675-141.898
				c-6.735-17.9-14.583-32.51-23.253-43.535C288.569,88.794,298.063,91.577,307.354,95.075z M236.979,82.329
				c31.679-0.001,66.871,77.45,68.856,189.835H190.232c-5.523,0-10,4.477-10,10s4.477,10,10,10h115.602
				c-0.539,30.534-3.53,58.486-8.236,83.01c-19.515-5.584-39.89-8.479-60.621-8.479c-20.738,0-41.11,2.896-60.621,8.477
				c-5.215-27.177-8.327-58.562-8.327-93.008c0-34.027,3.038-65.064,8.139-92.012c19.554,5.607,39.984,8.521,60.81,8.521
				c13.896,0,27.806-1.307,41.343-3.883c5.425-1.033,8.986-6.268,7.954-11.694c-1.033-5.425-6.271-8.985-11.694-7.954
				c-12.307,2.343-24.958,3.531-37.603,3.531c-19.391,0-38.408-2.767-56.575-8.11C193.838,115.762,216.166,82.329,236.979,82.329z
				 M195.011,86.776c-8.655,11.02-16.491,25.615-23.216,43.49c-3.916,10.404-7.378,21.676-10.368,33.64
				c-19.681-8.035-38.071-19.24-54.496-33.345C131.763,109.229,161.876,93.886,195.011,86.776z M37.391,292.164h30.263
				c5.523,0,10-4.477,10-10s-4.477-10-10-10H37.391c2.447-49.405,22.917-94.146,54.959-127.768
				c19.337,16.92,41.211,30.138,64.689,39.296c-5.887,30.128-9.01,63.691-9.01,98.472c0,35.158,3.191,69.072,9.202,99.451
				c-23.328,9.076-45.081,22.164-64.327,38.886C60.547,386.815,39.852,341.849,37.391,292.164z M107.534,434.278
				c16.33-13.905,34.604-24.951,54.131-32.894c2.936,11.607,6.319,22.551,10.129,32.678c6.725,17.875,14.561,32.47,23.216,43.49
				C162.141,470.499,132.251,455.342,107.534,434.278z M236.979,482c-20.687,0-42.87-33.034-56.328-87.247
				c18.106-5.305,37.043-8.059,56.328-8.059c19.279,0,38.216,2.758,56.327,8.065C279.846,448.968,257.664,482,236.979,482z
				 M278.947,477.552c8.655-11.02,16.491-25.615,23.216-43.49c3.809-10.125,7.192-21.068,10.127-32.674
				c19.527,7.943,37.799,18.993,54.127,32.894C341.701,455.344,311.813,470.499,278.947,477.552z M381.052,420.5
				c-19.243-16.718-40.999-29.807-64.328-38.884c5.439-27.488,8.568-57.872,9.113-89.453h110.726
				C434.102,341.849,413.409,386.815,381.052,420.5z" fill="#fff"/>
            <path d="M450.291,88.947c0-29.985-24.394-54.379-54.378-54.379c-29.984,0-54.378,24.394-54.378,54.379
				c0,29.984,24.394,54.378,54.378,54.378C425.896,143.325,450.291,118.932,450.291,88.947z M361.534,88.947
				c0-18.957,15.422-34.379,34.378-34.379s34.378,15.422,34.378,34.379c0,18.957-15.422,34.378-34.378,34.378
				S361.534,107.904,361.534,88.947z" fill="#fff"/>
		</g>
	</g>
</g>

</svg>
