<?xml version="1.0" encoding="iso-8859-1"?>
<!-- Generator: Adobe Illustrator 19.0.0, SVG Export Plug-In . SVG Version: 6.00 Build 0)  -->
<svg version="1.1" id="Capa_1" xmlns="http://www.w3.org/2000/svg" xmlns:xlink="http://www.w3.org/1999/xlink" x="0px" y="0px"
	 viewBox="0 0 512 512" style="enable-background:new 0 0 512 512;" xml:space="preserve">
<g>
	<g>
		<path d="M418.125,204.8h-25.591v-68.267C392.533,61.252,331.281,0,256,0S119.467,61.252,119.467,136.533V204.8H93.875
			c-18.825,0-34.142,15.317-34.142,34.15v187.716h392.533V238.95C452.267,220.117,436.949,204.8,418.125,204.8z M281.6,332.621
			v34.313c0,14.114-11.486,25.6-25.6,25.6c-14.114,0-25.6-11.486-25.6-25.6v-34.304c-13.645-10.231-19.942-27.537-15.77-44.57
			c3.729-15.223,16-27.349,31.266-30.891c13.013-3.038,26.368-0.077,36.625,8.064c10.266,8.158,16.145,20.343,16.145,33.434
			C298.667,312.004,292.233,324.608,281.6,332.621z M341.333,204.8H170.667v-68.267c0-47.053,38.281-85.333,85.333-85.333
			s85.333,38.281,85.333,85.333V204.8z"/>
	</g>
</g>
<g>
	<g>
		<path d="M271.906,278.605c-4.599-3.661-10.078-5.547-15.855-5.547c-2.074,0-4.181,0.239-6.298,0.734
			c-8.917,2.074-16.367,9.438-18.551,18.33c-2.807,11.469,1.911,22.682,12.023,28.57c2.628,1.527,4.241,4.335,4.241,7.373v38.869
			c0,4.71,3.831,8.533,8.533,8.533c4.702,0,8.533-3.823,8.533-8.533v-38.869c0-3.029,1.613-5.845,4.241-7.373
			c8.03-4.676,12.826-12.911,12.826-22.025C281.6,290.807,278.067,283.503,271.906,278.605z"/>
	</g>
</g>
<g>
	<g>
		<path d="M59.733,443.733v34.116c0,18.833,15.317,34.15,34.142,34.15h324.241c18.833,0,34.15-15.317,34.15-34.15v-34.116H59.733z"
			/>
	</g>
</g>
<g>
</g>
<g>
</g>
<g>
</g>
<g>
</g>
<g>
</g>
<g>
</g>
<g>
</g>
<g>
</g>
<g>
</g>
<g>
</g>
<g>
</g>
<g>
</g>
<g>
</g>
<g>
</g>
<g>
</g>
</svg>
