<?xml version="1.0" encoding="windows-1252"?>
<!-- Generator: Adobe Illustrator 19.0.0, SVG Export Plug-In . SVG Version: 6.00 Build 0)  -->
<svg version="1.1" id="Capa_1" xmlns="http://www.w3.org/2000/svg" xmlns:xlink="http://www.w3.org/1999/xlink" x="0px" y="0px" viewBox="0 0 512 512" style="enable-background:new 0 0 512 512;" xml:space="preserve">
<circle style="fill:#0074A3;" cx="256" cy="256" r="256"/>
<path style="fill:#005C83;" d="M510.999,278.558L327.442,95L184.5,105l9.057,253.583L137,410.729l100.607,100.607  C243.683,511.768,249.814,512,256,512C389.782,512,499.576,409.375,510.999,278.558z"/>
<path style="fill:#FFFFFF;" d="M347.942,248.952h-41v-96.24c0-28.089-22.853-50.942-50.942-50.942s-50.942,22.852-50.942,50.942  v96.24h-41v-96.24c0-50.697,41.245-91.942,91.942-91.942s91.942,41.245,91.942,91.942V248.952z"/>
<path style="fill:#E0E0E0;" d="M256,60.771c-0.111,0-0.222,0.004-0.333,0.004v41.004c0.112-0.001,0.222-0.008,0.333-0.008  c28.089,0,50.942,22.852,50.942,50.942v96.24h41v-96.24C347.942,102.016,306.697,60.771,256,60.771z"/>
<rect x="137" y="206.44" style="fill:#FFDC00;" width="238" height="204.29"/>
<rect x="255.67" y="206.44" style="fill:#FFC000;" width="119.33" height="204.29"/>
<path style="fill:#FF6838;" d="M305.667,340.585h-99.333c-17.673,0-32-14.327-32-32l0,0c0-17.673,14.327-32,32-32h99.333  c17.673,0,32,14.327,32,32l0,0C337.667,326.258,323.34,340.585,305.667,340.585z"/>
<path style="fill:#AE4E32;" d="M305.667,276.585h-50v64h50c17.673,0,32-14.327,32-32l0,0  C337.667,290.912,323.34,276.585,305.667,276.585z"/>
<g>
	<circle style="fill:#590F38;" cx="207.19" cy="308.58" r="14.875"/>
	<circle style="fill:#590F38;" cx="256" cy="308.58" r="14.875"/>
</g>
<g>
	<path style="fill:#380825;" d="M256,293.71c-0.113,0-0.221,0.014-0.333,0.017v29.716c0.112,0.003,0.221,0.017,0.333,0.017   c8.215,0,14.875-6.66,14.875-14.875S264.215,293.71,256,293.71z"/>
	<circle style="fill:#380825;" cx="304.81" cy="308.58" r="14.875"/>
</g>
<g>
</g>
<g>
</g>
<g>
</g>
<g>
</g>
<g>
</g>
<g>
</g>
<g>
</g>
<g>
</g>
<g>
</g>
<g>
</g>
<g>
</g>
<g>
</g>
<g>
</g>
<g>
</g>
<g>
</g>
</svg>