<?xml version="1.0"?>
<svg xmlns="http://www.w3.org/2000/svg" xmlns:xlink="http://www.w3.org/1999/xlink" width="512" height="512" viewBox="0 0 128 128"><defs><linearGradient id="a" x1="86.294" y1="109.346" x2="13.361" y2="36.413" gradientUnits="userSpaceOnUse"><stop offset="0" stop-color="#0d70b2"/><stop offset="1" stop-color="#00ddc1"/></linearGradient></defs><path d="M127.125,55.9,89.029,33.9a1.75,1.75,0,0,0-1.75,3.031l36.58,21.12L112.63,77.505l-11.317-6.534L97.9,69,59.263,46.694,30.736,30.224l8.105-14.038A6.257,6.257,0,0,1,47.379,13.9l12.49,7.212a1.75,1.75,0,1,0,1.75-3.031l-12.49-7.212A9.762,9.762,0,0,0,35.81,14.436L26.83,29.989,20.852,40.342a9.763,9.763,0,0,0,3.57,13.319L51.165,69.1l-4.159,7.092a6.275,6.275,0,0,1-5.392,3.089H26v-11.9a1.75,1.75,0,0,0-1.75-1.75h-9.5V63.373A7.759,7.759,0,0,0,7,55.623H1.75A1.749,1.749,0,0,0,0,57.373V116.69a1.749,1.749,0,0,0,1.75,1.75H7a7.759,7.759,0,0,0,7.75-7.75v-5.559h9.5a1.75,1.75,0,0,0,1.75-1.75v-8.6H41.614a1.75,1.75,0,0,0,0-3.5H26v-8.5H41.614a9.788,9.788,0,0,0,8.411-4.818L54.2,70.852l7.362,4.25-4.2,7.163a18.163,18.163,0,0,1-2.717,3.541,1.75,1.75,0,0,0,2.494,2.456,21.653,21.653,0,0,0,3.242-4.226l4.213-7.184,14.659,8.463a9.7,9.7,0,0,0,4.858,1.31,9.8,9.8,0,0,0,2.54-.336A9.689,9.689,0,0,0,90.881,83.9,14.579,14.579,0,0,0,97,85.254a14.813,14.813,0,0,0,3.836-.508,14.614,14.614,0,0,0,7.971-5.4l3.584,2.069a1.749,1.749,0,0,0,2.391-.641l12.98-22.481A1.751,1.751,0,0,0,127.125,55.9ZM11.25,110.69A4.254,4.254,0,0,1,7,114.94H3.5V59.123H7a4.254,4.254,0,0,1,4.25,4.25V110.69Zm11.25-9.059H14.75v-32.5H22.5v32.5ZM81,82.284,26.172,50.63a6.257,6.257,0,0,1-2.288-8.538l5.1-8.837,50.247,29.01,15.405,8.894L89.535,80l-.007.011a6.176,6.176,0,0,1-.441.65l0,.007A6.256,6.256,0,0,1,81,82.284Zm18.937-.919A11.155,11.155,0,0,1,93,81l4.673-8.093,8.093,4.672A11.155,11.155,0,0,1,99.935,81.365ZM70.8,25.4a1.751,1.751,0,0,1,2.39-.64l4.274,2.467a1.75,1.75,0,1,1-1.75,3.031l-4.274-2.467A1.75,1.75,0,0,1,70.8,25.4Zm34.357,42.6a6.689,6.689,0,0,0,3.355.905,6.775,6.775,0,0,0,1.752-.232,6.73,6.73,0,1,0-5.107-.673Zm.569-7.443a3.211,3.211,0,0,1,1.961-1.5,3.264,3.264,0,0,1,.84-.111,3.233,3.233,0,1,1-2.8,1.616ZM46.144,52.661a1.748,1.748,0,0,1-2.39.641L29.41,45.02a1.75,1.75,0,1,1,1.75-3.031L45.5,50.27A1.75,1.75,0,0,1,46.144,52.661Z" fill="url(#a)"/></svg>
