<?xml version="1.0" encoding="iso-8859-1"?>
<!-- Generator: Adobe Illustrator 19.0.0, SVG Export Plug-In . SVG Version: 6.00 Build 0)  -->
<svg version="1.1" id="Capa_1" xmlns="http://www.w3.org/2000/svg" xmlns:xlink="http://www.w3.org/1999/xlink" x="0px" y="0px"
	 viewBox="0 0 512 512" style="enable-background:new 0 0 512 512;" xml:space="preserve">
<g>
	<g>
		<path d="M477.858,204.8H273.067v-68.267C273.067,61.252,211.814,0,136.533,0S0,61.252,0,136.533v76.8
			c0,4.719,3.823,8.533,8.533,8.533h34.133c4.71,0,8.533-3.814,8.533-8.533v-76.8c0-47.053,38.281-85.333,85.333-85.333
			s85.333,38.281,85.333,85.333V204.8h-68.258c-18.825,0-34.142,15.317-34.142,34.15v187.716H512V238.95
			C512,220.117,496.683,204.8,477.858,204.8z M341.333,332.621v34.313c0,14.114-11.486,25.6-25.6,25.6s-25.6-11.486-25.6-25.6
			v-34.304c-13.645-10.231-19.942-27.537-15.77-44.57c3.729-15.223,16-27.349,31.266-30.891c13.013-3.038,26.368-0.077,36.625,8.064
			c10.266,8.158,16.145,20.343,16.145,33.434C358.4,312.004,351.966,324.608,341.333,332.621z"/>
	</g>
</g>
<g>
	<g>
		<path d="M331.639,278.605c-4.599-3.661-10.078-5.547-15.855-5.547c-2.074,0-4.181,0.239-6.298,0.734
			c-8.917,2.074-16.367,9.438-18.551,18.33c-2.807,11.469,1.911,22.682,12.023,28.57c2.628,1.527,4.241,4.335,4.241,7.373v38.869
			c0,4.71,3.831,8.533,8.533,8.533s8.533-3.823,8.533-8.533v-38.869c0-3.029,1.613-5.845,4.241-7.373
			c8.03-4.676,12.826-12.911,12.826-22.025C341.333,290.807,337.801,283.503,331.639,278.605z"/>
	</g>
</g>
<g>
	<g>
		<path d="M119.467,443.733v34.116c0,18.833,15.317,34.15,34.142,34.15H477.85c18.833,0,34.15-15.317,34.15-34.15v-34.116H119.467z"
			/>
	</g>
</g>
<g>
</g>
<g>
</g>
<g>
</g>
<g>
</g>
<g>
</g>
<g>
</g>
<g>
</g>
<g>
</g>
<g>
</g>
<g>
</g>
<g>
</g>
<g>
</g>
<g>
</g>
<g>
</g>
<g>
</g>
</svg>
