<?xml version="1.0" encoding="iso-8859-1"?>
<!-- Generator: Adobe Illustrator 19.0.0, SVG Export Plug-In . SVG Version: 6.00 Build 0)  -->
<svg version="1.1" id="Capa_1" xmlns="http://www.w3.org/2000/svg" xmlns:xlink="http://www.w3.org/1999/xlink" x="0px" y="0px"
	 viewBox="0 0 512 512" style="enable-background:new 0 0 512 512;" xml:space="preserve">
<circle style="fill:#00BAFF;" cx="256" cy="256" r="256"/>
<path style="fill:#008CC3;" d="M510.963,278.963L321.415,88.168L186.054,105L137,410.729l100.607,100.607
	C243.683,511.768,249.814,512,256,512C389.644,512,499.348,409.587,510.963,278.963z"/>
<path style="fill:#FFFFFF;" d="M205.059,248.952h-41v-96.24c0-50.697,41.245-91.942,91.941-91.942s91.941,41.245,91.941,91.942h-41
	c0-28.089-22.853-50.942-50.941-50.942s-50.941,22.853-50.941,50.942L205.059,248.952L205.059,248.952z"/>
<path style="fill:#E0E0E0;" d="M256,60.771c-0.111,0-0.222,0.004-0.333,0.004v41.004c0.112-0.001,0.221-0.009,0.333-0.009
	c28.089,0,50.941,22.853,50.941,50.942h41C347.941,102.015,306.696,60.771,256,60.771z"/>
<rect x="137" y="206.44" style="fill:#FFDC00;" width="238" height="204.29"/>
<rect x="255.67" y="206.44" style="fill:#FFC000;" width="119.33" height="204.29"/>
<circle style="fill:#47AB4B;" cx="256" cy="308.58" r="81.58"/>
<path style="fill:#2B9153;" d="M256,227c-0.112,0-0.222,0.008-0.333,0.008v163.154c0.112,0,0.221,0.008,0.333,0.008
	c45.058,0,81.585-36.527,81.585-81.585S301.058,227,256,227z"/>
<polygon style="fill:#FFFFFF;" points="236.11,356.284 196.476,316.649 216.274,296.851 237.14,317.716 296.268,264.586 
	314.982,285.414 "/>
<polygon style="fill:#E0E0E0;" points="296.268,264.586 255.667,301.068 255.667,338.712 314.982,285.414 "/>
<g>
</g>
<g>
</g>
<g>
</g>
<g>
</g>
<g>
</g>
<g>
</g>
<g>
</g>
<g>
</g>
<g>
</g>
<g>
</g>
<g>
</g>
<g>
</g>
<g>
</g>
<g>
</g>
<g>
</g>
</svg>
